<svg version="1.1" xmlns="http://www.w3.org/2000/svg" xmlns:xlink="http://www.w3.org/1999/xlink" preserveAspectRatio="xMidYMid meet" viewBox="0 0 24 24" width="24" height="24">
    <defs>
        <path d="M13.19 15.43C14.76 19.25 15.63 21.38 15.81 21.8C15.99 22.25 15.78 22.74 15.37 22.93C15.14 23.03 13.29 23.83 13.06 23.93C12.63 24.12 12.15 23.91 11.97 23.48C11.8 23.07 10.97 21.06 9.48 17.42C7.04 19.93 5.69 21.32 5.42 21.6C4.88 22.16 4 21.73 4 21C4 18.99 4 2.87 4 0.86C4 0.09 4.93 -0.28 5.42 0.26C6.75 1.63 17.42 12.6 18.75 13.97C19.29 14.49 18.89 15.43 18.16 15.43C17.5 15.43 15.84 15.43 13.19 15.43Z" id="e3kjDv96uT"></path>
    </defs>
    <g>
        <g>
            <g>
                <use xlink:href="#e3kjDv96uT" opacity="1" fill="#000000" fill-opacity="1"></use>
                <g>
                    <use xlink:href="#e3kjDv96uT" opacity="1" fill-opacity="0" stroke="#000000" stroke-width="1" stroke-opacity="0"></use>
                </g>
            </g>
        </g>
    </g>
</svg>